<svg xmlns="http://www.w3.org/2000/svg" width="640" height="480" viewBox="0 0 640 480"><rect width="100%" height="100%" fill="#f2f4f7"/><g transform="rotate(27 300 230)"><rect x="210" y="140" width="180" height="180" fill="#ffffff"/><rect x="229.459" y="159.459" width="4.885" height="4.885" fill="#000000"/><rect x="234.324" y="159.459" width="4.885" height="4.885" fill="#000000"/><rect x="239.189" y="159.459" width="4.885" height="4.885" fill="#000000"/><rect x="244.054" y="159.459" width="4.885" height="4.885" fill="#000000"/><rect x="248.919" y="159.459" width="4.885" height="4.885" fill="#000000"/><rect x="253.784" y="159.459" width="4.885" height="4.885" fill="#000000"/><rect x="258.649" y="159.459" width="4.885" height="4.885" fill="#000000"/><rect x="268.378" y="159.459" width="4.885" height="4.885" fill="#000000"/><rect x="273.243" y="159.459" width="4.885" height="4.885" fill="#000000"/><rect x="278.108" y="159.459" width="4.885" height="4.885" fill="#000000"/><rect x="282.973" y="159.459" width="4.885" height="4.885" fill="#000000"/><rect x="292.703" y="159.459" width="4.885" height="4.885" fill="#000000"/><rect x="336.486" y="159.459" width="4.885" height="4.885" fill="#000000"/><rect x="341.351" y="159.459" width="4.885" height="4.885" fill="#000000"/><rect x="346.216" y="159.459" width="4.885" height="4.885" fill="#000000"/><rect x="351.081" y="159.459" width="4.885" height="4.885" fill="#000000"/><rect x="355.946" y="159.459" width="4.885" height="4.885" fill="#000000"/><rect x="360.811" y="159.459" width="4.885" height="4.885" fill="#000000"/><rect x="365.676" y="159.459" width="4.885" height="4.885" fill="#000000"/><rect x="229.459" y="164.324" width="4.885" height="4.885" fill="#000000"/><rect x="258.649" y="164.324" width="4.885" height="4.885" fill="#000000"/><rect x="282.973" y="164.324" width="4.885" height="4.885" fill="#000000"/><rect x="287.838" y="164.324" width="4.885" height="4.885" fill="#000000"/><rect x="292.703" y="164.324" width="4.885" height="4.885" fill="#000000"/><rect x="307.297" y="164.324" width="4.885" height="4.885" fill="#000000"/><rect x="317.027" y="164.324" width="4.885" height="4.885" fill="#000000"/><rect x="321.892" y="164.324" width="4.885" height="4.885" fill="#000000"/><rect x="336.486" y="164.324" width="4.885" height="4.885" fill="#000000"/><rect x="365.676" y="164.324" width="4.885" height="4.885" fill="#000000"/><rect x="229.459" y="169.189" width="4.885" height="4.885" fill="#000000"/><rect x="239.189" y="169.189" width="4.885" height="4.885" fill="#000000"/><rect x="244.054" y="169.189" width="4.885" height="4.885" fill="#000000"/><rect x="248.919" y="169.189" width="4.885" height="4.885" fill="#000000"/><rect x="258.649" y="169.189" width="4.885" height="4.885" fill="#000000"/><rect x="273.243" y="169.189" width="4.885" height="4.885" fill="#000000"/><rect x="282.973" y="169.189" width="4.885" height="4.885" fill="#000000"/><rect x="292.703" y="169.189" width="4.885" height="4.885" fill="#000000"/><rect x="336.486" y="169.189" width="4.885" height="4.885" fill="#000000"/><rect x="346.216" y="169.189" width="4.885" height="4.885" fill="#000000"/><rect x="351.081" y="169.189" width="4.885" height="4.885" fill="#000000"/><rect x="355.946" y="169.189" width="4.885" height="4.885" fill="#000000"/><rect x="365.676" y="169.189" width="4.885" height="4.885" fill="#000000"/><rect x="229.459" y="174.054" width="4.885" height="4.885" fill="#000000"/><rect x="239.189" y="174.054" width="4.885" height="4.885" fill="#000000"/><rect x="244.054" y="174.054" width="4.885" height="4.885" fill="#000000"/><rect x="248.919" y="174.054" width="4.885" height="4.885" fill="#000000"/><rect x="258.649" y="174.054" width="4.885" height="4.885" fill="#000000"/><rect x="278.108" y="174.054" width="4.885" height="4.885" fill="#000000"/><rect x="282.973" y="174.054" width="4.885" height="4.885" fill="#000000"/><rect x="292.703" y="174.054" width="4.885" height="4.885" fill="#000000"/><rect x="302.432" y="174.054" width="4.885" height="4.885" fill="#000000"/><rect x="307.297" y="174.054" width="4.885" height="4.885" fill="#000000"/><rect x="312.162" y="174.054" width="4.885" height="4.885" fill="#000000"/><rect x="336.486" y="174.054" width="4.885" height="4.885" fill="#000000"/><rect x="346.216" y="174.054" width="4.885" height="4.885" fill="#000000"/><rect x="351.081" y="174.054" width="4.885" height="4.885" fill="#000000"/><rect x="355.946" y="174.054" width="4.885" height="4.885" fill="#000000"/><rect x="365.676" y="174.054" width="4.885" height="4.885" fill="#000000"/><rect x="229.459" y="178.919" width="4.885" height="4.885" fill="#000000"/><rect x="239.189" y="178.919" width="4.885" height="4.885" fill="#000000"/><rect x="244.054" y="178.919" width="4.885" height="4.885" fill="#000000"/><rect x="248.919" y="178.919" width="4.885" height="4.885" fill="#000000"/><rect x="258.649" y="178.919" width="4.885" height="4.885" fill="#000000"/><rect x="278.108" y="178.919" width="4.885" height="4.885" fill="#000000"/><rect x="282.973" y="178.919" width="4.885" height="4.885" fill="#000000"/><rect x="287.838" y="178.919" width="4.885" height="4.885" fill="#000000"/><rect x="297.568" y="178.919" width="4.885" height="4.885" fill="#000000"/><rect x="307.297" y="178.919" width="4.885" height="4.885" fill="#000000"/><rect x="317.027" y="178.919" width="4.885" height="4.885" fill="#000000"/><rect x="321.892" y="178.919" width="4.885" height="4.885" fill="#000000"/><rect x="336.486" y="178.919" width="4.885" height="4.885" fill="#000000"/><rect x="346.216" y="178.919" width="4.885" height="4.885" fill="#000000"/><rect x="351.081" y="178.919" width="4.885" height="4.885" fill="#000000"/><rect x="355.946" y="178.919" width="4.885" height="4.885" fill="#000000"/><rect x="365.676" y="178.919" width="4.885" height="4.885" fill="#000000"/><rect x="229.459" y="183.784" width="4.885" height="4.885" fill="#000000"/><rect x="258.649" y="183.784" width="4.885" height="4.885" fill="#000000"/><rect x="273.243" y="183.784" width="4.885" height="4.885" fill="#000000"/><rect x="282.973" y="183.784" width="4.885" height="4.885" fill="#000000"/><rect x="307.297" y="183.784" width="4.885" height="4.885" fill="#000000"/><rect x="326.757" y="183.784" width="4.885" height="4.885" fill="#000000"/><rect x="336.486" y="183.784" width="4.885" height="4.885" fill="#000000"/><rect x="365.676" y="183.784" width="4.885" height="4.885" fill="#000000"/><rect x="229.459" y="188.649" width="4.885" height="4.885" fill="#000000"/><rect x="234.324" y="188.649" width="4.885" height="4.885" fill="#000000"/><rect x="239.189" y="188.649" width="4.885" height="4.885" fill="#000000"/><rect x="244.054" y="188.649" width="4.885" height="4.885" fill="#000000"/><rect x="248.919" y="188.649" width="4.885" height="4.885" fill="#000000"/><rect x="253.784" y="188.649" width="4.885" height="4.885" fill="#000000"/><rect x="258.649" y="188.649" width="4.885" height="4.885" fill="#000000"/><rect x="268.378" y="188.649" width="4.885" height="4.885" fill="#000000"/><rect x="278.108" y="188.649" width="4.885" height="4.885" fill="#000000"/><rect x="287.838" y="188.649" width="4.885" height="4.885" fill="#000000"/><rect x="297.568" y="188.649" width="4.885" height="4.885" fill="#000000"/><rect x="307.297" y="188.649" width="4.885" height="4.885" fill="#000000"/><rect x="317.027" y="188.649" width="4.885" height="4.885" fill="#000000"/><rect x="326.757" y="188.649" width="4.885" height="4.885" fill="#000000"/><rect x="336.486" y="188.649" width="4.885" height="4.885" fill="#000000"/><rect x="341.351" y="188.649" width="4.885" height="4.885" fill="#000000"/><rect x="346.216" y="188.649" width="4.885" height="4.885" fill="#000000"/><rect x="351.081" y="188.649" width="4.885" height="4.885" fill="#000000"/><rect x="355.946" y="188.649" width="4.885" height="4.885" fill="#000000"/><rect x="360.811" y="188.649" width="4.885" height="4.885" fill="#000000"/><rect x="365.676" y="188.649" width="4.885" height="4.885" fill="#000000"/><rect x="268.378" y="193.514" width="4.885" height="4.885" fill="#000000"/><rect x="273.243" y="193.514" width="4.885" height="4.885" fill="#000000"/><rect x="287.838" y="193.514" width="4.885" height="4.885" fill="#000000"/><rect x="292.703" y="193.514" width="4.885" height="4.885" fill="#000000"/><rect x="302.432" y="193.514" width="4.885" height="4.885" fill="#000000"/><rect x="317.027" y="193.514" width="4.885" height="4.885" fill="#000000"/><rect x="229.459" y="198.378" width="4.885" height="4.885" fill="#000000"/><rect x="234.324" y="198.378" width="4.885" height="4.885" fill="#000000"/><rect x="244.054" y="198.378" width="4.885" height="4.885" fill="#000000"/><rect x="248.919" y="198.378" width="4.885" height="4.885" fill="#000000"/><rect x="258.649" y="198.378" width="4.885" height="4.885" fill="#000000"/><rect x="273.243" y="198.378" width="4.885" height="4.885" fill="#000000"/><rect x="287.838" y="198.378" width="4.885" height="4.885" fill="#000000"/><rect x="297.568" y="198.378" width="4.885" height="4.885" fill="#000000"/><rect x="302.432" y="198.378" width="4.885" height="4.885" fill="#000000"/><rect x="312.162" y="198.378" width="4.885" height="4.885" fill="#000000"/><rect x="336.486" y="198.378" width="4.885" height="4.885" fill="#000000"/><rect x="365.676" y="198.378" width="4.885" height="4.885" fill="#000000"/><rect x="229.459" y="203.243" width="4.885" height="4.885" fill="#000000"/><rect x="239.189" y="203.243" width="4.885" height="4.885" fill="#000000"/><rect x="263.514" y="203.243" width="4.885" height="4.885" fill="#000000"/><rect x="278.108" y="203.243" width="4.885" height="4.885" fill="#000000"/><rect x="302.432" y="203.243" width="4.885" height="4.885" fill="#000000"/><rect x="321.892" y="203.243" width="4.885" height="4.885" fill="#000000"/><rect x="326.757" y="203.243" width="4.885" height="4.885" fill="#000000"/><rect x="331.622" y="203.243" width="4.885" height="4.885" fill="#000000"/><rect x="341.351" y="203.243" width="4.885" height="4.885" fill="#000000"/><rect x="346.216" y="203.243" width="4.885" height="4.885" fill="#000000"/><rect x="355.946" y="203.243" width="4.885" height="4.885" fill="#000000"/><rect x="360.811" y="203.243" width="4.885" height="4.885" fill="#000000"/><rect x="229.459" y="208.108" width="4.885" height="4.885" fill="#000000"/><rect x="239.189" y="208.108" width="4.885" height="4.885" fill="#000000"/><rect x="258.649" y="208.108" width="4.885" height="4.885" fill="#000000"/><rect x="263.514" y="208.108" width="4.885" height="4.885" fill="#000000"/><rect x="268.378" y="208.108" width="4.885" height="4.885" fill="#000000"/><rect x="273.243" y="208.108" width="4.885" height="4.885" fill="#000000"/><rect x="287.838" y="208.108" width="4.885" height="4.885" fill="#000000"/><rect x="302.432" y="208.108" width="4.885" height="4.885" fill="#000000"/><rect x="307.297" y="208.108" width="4.885" height="4.885" fill="#000000"/><rect x="312.162" y="208.108" width="4.885" height="4.885" fill="#000000"/><rect x="326.757" y="208.108" width="4.885" height="4.885" fill="#000000"/><rect x="331.622" y="208.108" width="4.885" height="4.885" fill="#000000"/><rect x="346.216" y="208.108" width="4.885" height="4.885" fill="#000000"/><rect x="355.946" y="208.108" width="4.885" height="4.885" fill="#000000"/><rect x="244.054" y="212.973" width="4.885" height="4.885" fill="#000000"/><rect x="248.919" y="212.973" width="4.885" height="4.885" fill="#000000"/><rect x="253.784" y="212.973" width="4.885" height="4.885" fill="#000000"/><rect x="263.514" y="212.973" width="4.885" height="4.885" fill="#000000"/><rect x="268.378" y="212.973" width="4.885" height="4.885" fill="#000000"/><rect x="312.162" y="212.973" width="4.885" height="4.885" fill="#000000"/><rect x="317.027" y="212.973" width="4.885" height="4.885" fill="#000000"/><rect x="326.757" y="212.973" width="4.885" height="4.885" fill="#000000"/><rect x="336.486" y="212.973" width="4.885" height="4.885" fill="#000000"/><rect x="351.081" y="212.973" width="4.885" height="4.885" fill="#000000"/><rect x="365.676" y="212.973" width="4.885" height="4.885" fill="#000000"/><rect x="239.189" y="217.838" width="4.885" height="4.885" fill="#000000"/><rect x="258.649" y="217.838" width="4.885" height="4.885" fill="#000000"/><rect x="273.243" y="217.838" width="4.885" height="4.885" fill="#000000"/><rect x="278.108" y="217.838" width="4.885" height="4.885" fill="#000000"/><rect x="307.297" y="217.838" width="4.885" height="4.885" fill="#000000"/><rect x="321.892" y="217.838" width="4.885" height="4.885" fill="#000000"/><rect x="336.486" y="217.838" width="4.885" height="4.885" fill="#000000"/><rect x="341.351" y="217.838" width="4.885" height="4.885" fill="#000000"/><rect x="365.676" y="217.838" width="4.885" height="4.885" fill="#000000"/><rect x="239.189" y="222.703" width="4.885" height="4.885" fill="#000000"/><rect x="244.054" y="222.703" width="4.885" height="4.885" fill="#000000"/><rect x="248.919" y="222.703" width="4.885" height="4.885" fill="#000000"/><rect x="263.514" y="222.703" width="4.885" height="4.885" fill="#000000"/><rect x="278.108" y="222.703" width="4.885" height="4.885" fill="#000000"/><rect x="287.838" y="222.703" width="4.885" height="4.885" fill="#000000"/><rect x="292.703" y="222.703" width="4.885" height="4.885" fill="#000000"/><rect x="297.568" y="222.703" width="4.885" height="4.885" fill="#000000"/><rect x="302.432" y="222.703" width="4.885" height="4.885" fill="#000000"/><rect x="312.162" y="222.703" width="4.885" height="4.885" fill="#000000"/><rect x="317.027" y="222.703" width="4.885" height="4.885" fill="#000000"/><rect x="336.486" y="222.703" width="4.885" height="4.885" fill="#000000"/><rect x="341.351" y="222.703" width="4.885" height="4.885" fill="#000000"/><rect x="346.216" y="222.703" width="4.885" height="4.885" fill="#000000"/><rect x="351.081" y="222.703" width="4.885" height="4.885" fill="#000000"/><rect x="355.946" y="222.703" width="4.885" height="4.885" fill="#000000"/><rect x="360.811" y="222.703" width="4.885" height="4.885" fill="#000000"/><rect x="365.676" y="222.703" width="4.885" height="4.885" fill="#000000"/><rect x="234.324" y="227.568" width="4.885" height="4.885" fill="#000000"/><rect x="239.189" y="227.568" width="4.885" height="4.885" fill="#000000"/><rect x="248.919" y="227.568" width="4.885" height="4.885" fill="#000000"/><rect x="258.649" y="227.568" width="4.885" height="4.885" fill="#000000"/><rect x="268.378" y="227.568" width="4.885" height="4.885" fill="#000000"/><rect x="278.108" y="227.568" width="4.885" height="4.885" fill="#000000"/><rect x="292.703" y="227.568" width="4.885" height="4.885" fill="#000000"/><rect x="297.568" y="227.568" width="4.885" height="4.885" fill="#000000"/><rect x="302.432" y="227.568" width="4.885" height="4.885" fill="#000000"/><rect x="307.297" y="227.568" width="4.885" height="4.885" fill="#000000"/><rect x="317.027" y="227.568" width="4.885" height="4.885" fill="#000000"/><rect x="321.892" y="227.568" width="4.885" height="4.885" fill="#000000"/><rect x="326.757" y="227.568" width="4.885" height="4.885" fill="#000000"/><rect x="341.351" y="227.568" width="4.885" height="4.885" fill="#000000"/><rect x="346.216" y="227.568" width="4.885" height="4.885" fill="#000000"/><rect x="355.946" y="227.568" width="4.885" height="4.885" fill="#000000"/><rect x="365.676" y="227.568" width="4.885" height="4.885" fill="#000000"/><rect x="229.459" y="232.432" width="4.885" height="4.885" fill="#000000"/><rect x="234.324" y="232.432" width="4.885" height="4.885" fill="#000000"/><rect x="244.054" y="232.432" width="4.885" height="4.885" fill="#000000"/><rect x="253.784" y="232.432" width="4.885" height="4.885" fill="#000000"/><rect x="263.514" y="232.432" width="4.885" height="4.885" fill="#000000"/><rect x="273.243" y="232.432" width="4.885" height="4.885" fill="#000000"/><rect x="287.838" y="232.432" width="4.885" height="4.885" fill="#000000"/><rect x="302.432" y="232.432" width="4.885" height="4.885" fill="#000000"/><rect x="307.297" y="232.432" width="4.885" height="4.885" fill="#000000"/><rect x="317.027" y="232.432" width="4.885" height="4.885" fill="#000000"/><rect x="321.892" y="232.432" width="4.885" height="4.885" fill="#000000"/><rect x="326.757" y="232.432" width="4.885" height="4.885" fill="#000000"/><rect x="336.486" y="232.432" width="4.885" height="4.885" fill="#000000"/><rect x="346.216" y="232.432" width="4.885" height="4.885" fill="#000000"/><rect x="355.946" y="232.432" width="4.885" height="4.885" fill="#000000"/><rect x="365.676" y="232.432" width="4.885" height="4.885" fill="#000000"/><rect x="229.459" y="237.297" width="4.885" height="4.885" fill="#000000"/><rect x="234.324" y="237.297" width="4.885" height="4.885" fill="#000000"/><rect x="239.189" y="237.297" width="4.885" height="4.885" fill="#000000"/><rect x="244.054" y="237.297" width="4.885" height="4.885" fill="#000000"/><rect x="258.649" y="237.297" width="4.885" height="4.885" fill="#000000"/><rect x="268.378" y="237.297" width="4.885" height="4.885" fill="#000000"/><rect x="273.243" y="237.297" width="4.885" height="4.885" fill="#000000"/><rect x="282.973" y="237.297" width="4.885" height="4.885" fill="#000000"/><rect x="287.838" y="237.297" width="4.885" height="4.885" fill="#000000"/><rect x="292.703" y="237.297" width="4.885" height="4.885" fill="#000000"/><rect x="302.432" y="237.297" width="4.885" height="4.885" fill="#000000"/><rect x="307.297" y="237.297" width="4.885" height="4.885" fill="#000000"/><rect x="341.351" y="237.297" width="4.885" height="4.885" fill="#000000"/><rect x="351.081" y="237.297" width="4.885" height="4.885" fill="#000000"/><rect x="229.459" y="242.162" width="4.885" height="4.885" fill="#000000"/><rect x="234.324" y="242.162" width="4.885" height="4.885" fill="#000000"/><rect x="248.919" y="242.162" width="4.885" height="4.885" fill="#000000"/><rect x="253.784" y="242.162" width="4.885" height="4.885" fill="#000000"/><rect x="263.514" y="242.162" width="4.885" height="4.885" fill="#000000"/><rect x="273.243" y="242.162" width="4.885" height="4.885" fill="#000000"/><rect x="278.108" y="242.162" width="4.885" height="4.885" fill="#000000"/><rect x="282.973" y="242.162" width="4.885" height="4.885" fill="#000000"/><rect x="302.432" y="242.162" width="4.885" height="4.885" fill="#000000"/><rect x="312.162" y="242.162" width="4.885" height="4.885" fill="#000000"/><rect x="317.027" y="242.162" width="4.885" height="4.885" fill="#000000"/><rect x="321.892" y="242.162" width="4.885" height="4.885" fill="#000000"/><rect x="326.757" y="242.162" width="4.885" height="4.885" fill="#000000"/><rect x="346.216" y="242.162" width="4.885" height="4.885" fill="#000000"/><rect x="355.946" y="242.162" width="4.885" height="4.885" fill="#000000"/><rect x="360.811" y="242.162" width="4.885" height="4.885" fill="#000000"/><rect x="229.459" y="247.027" width="4.885" height="4.885" fill="#000000"/><rect x="234.324" y="247.027" width="4.885" height="4.885" fill="#000000"/><rect x="258.649" y="247.027" width="4.885" height="4.885" fill="#000000"/><rect x="268.378" y="247.027" width="4.885" height="4.885" fill="#000000"/><rect x="287.838" y="247.027" width="4.885" height="4.885" fill="#000000"/><rect x="292.703" y="247.027" width="4.885" height="4.885" fill="#000000"/><rect x="302.432" y="247.027" width="4.885" height="4.885" fill="#000000"/><rect x="312.162" y="247.027" width="4.885" height="4.885" fill="#000000"/><rect x="321.892" y="247.027" width="4.885" height="4.885" fill="#000000"/><rect x="336.486" y="247.027" width="4.885" height="4.885" fill="#000000"/><rect x="341.351" y="247.027" width="4.885" height="4.885" fill="#000000"/><rect x="346.216" y="247.027" width="4.885" height="4.885" fill="#000000"/><rect x="351.081" y="247.027" width="4.885" height="4.885" fill="#000000"/><rect x="365.676" y="247.027" width="4.885" height="4.885" fill="#000000"/><rect x="229.459" y="251.892" width="4.885" height="4.885" fill="#000000"/><rect x="234.324" y="251.892" width="4.885" height="4.885" fill="#000000"/><rect x="239.189" y="251.892" width="4.885" height="4.885" fill="#000000"/><rect x="248.919" y="251.892" width="4.885" height="4.885" fill="#000000"/><rect x="253.784" y="251.892" width="4.885" height="4.885" fill="#000000"/><rect x="263.514" y="251.892" width="4.885" height="4.885" fill="#000000"/><rect x="268.378" y="251.892" width="4.885" height="4.885" fill="#000000"/><rect x="282.973" y="251.892" width="4.885" height="4.885" fill="#000000"/><rect x="292.703" y="251.892" width="4.885" height="4.885" fill="#000000"/><rect x="297.568" y="251.892" width="4.885" height="4.885" fill="#000000"/><rect x="321.892" y="251.892" width="4.885" height="4.885" fill="#000000"/><rect x="331.622" y="251.892" width="4.885" height="4.885" fill="#000000"/><rect x="351.081" y="251.892" width="4.885" height="4.885" fill="#000000"/><rect x="355.946" y="251.892" width="4.885" height="4.885" fill="#000000"/><rect x="229.459" y="256.757" width="4.885" height="4.885" fill="#000000"/><rect x="234.324" y="256.757" width="4.885" height="4.885" fill="#000000"/><rect x="258.649" y="256.757" width="4.885" height="4.885" fill="#000000"/><rect x="268.378" y="256.757" width="4.885" height="4.885" fill="#000000"/><rect x="273.243" y="256.757" width="4.885" height="4.885" fill="#000000"/><rect x="282.973" y="256.757" width="4.885" height="4.885" fill="#000000"/><rect x="292.703" y="256.757" width="4.885" height="4.885" fill="#000000"/><rect x="302.432" y="256.757" width="4.885" height="4.885" fill="#000000"/><rect x="312.162" y="256.757" width="4.885" height="4.885" fill="#000000"/><rect x="321.892" y="256.757" width="4.885" height="4.885" fill="#000000"/><rect x="326.757" y="256.757" width="4.885" height="4.885" fill="#000000"/><rect x="331.622" y="256.757" width="4.885" height="4.885" fill="#000000"/><rect x="336.486" y="256.757" width="4.885" height="4.885" fill="#000000"/><rect x="341.351" y="256.757" width="4.885" height="4.885" fill="#000000"/><rect x="346.216" y="256.757" width="4.885" height="4.885" fill="#000000"/><rect x="351.081" y="256.757" width="4.885" height="4.885" fill="#000000"/><rect x="355.946" y="256.757" width="4.885" height="4.885" fill="#000000"/><rect x="360.811" y="256.757" width="4.885" height="4.885" fill="#000000"/><rect x="268.378" y="261.622" width="4.885" height="4.885" fill="#000000"/><rect x="278.108" y="261.622" width="4.885" height="4.885" fill="#000000"/><rect x="287.838" y="261.622" width="4.885" height="4.885" fill="#000000"/><rect x="292.703" y="261.622" width="4.885" height="4.885" fill="#000000"/><rect x="297.568" y="261.622" width="4.885" height="4.885" fill="#000000"/><rect x="302.432" y="261.622" width="4.885" height="4.885" fill="#000000"/><rect x="326.757" y="261.622" width="4.885" height="4.885" fill="#000000"/><rect x="346.216" y="261.622" width="4.885" height="4.885" fill="#000000"/><rect x="351.081" y="261.622" width="4.885" height="4.885" fill="#000000"/><rect x="229.459" y="266.486" width="4.885" height="4.885" fill="#000000"/><rect x="234.324" y="266.486" width="4.885" height="4.885" fill="#000000"/><rect x="239.189" y="266.486" width="4.885" height="4.885" fill="#000000"/><rect x="244.054" y="266.486" width="4.885" height="4.885" fill="#000000"/><rect x="248.919" y="266.486" width="4.885" height="4.885" fill="#000000"/><rect x="253.784" y="266.486" width="4.885" height="4.885" fill="#000000"/><rect x="258.649" y="266.486" width="4.885" height="4.885" fill="#000000"/><rect x="273.243" y="266.486" width="4.885" height="4.885" fill="#000000"/><rect x="278.108" y="266.486" width="4.885" height="4.885" fill="#000000"/><rect x="282.973" y="266.486" width="4.885" height="4.885" fill="#000000"/><rect x="292.703" y="266.486" width="4.885" height="4.885" fill="#000000"/><rect x="302.432" y="266.486" width="4.885" height="4.885" fill="#000000"/><rect x="307.297" y="266.486" width="4.885" height="4.885" fill="#000000"/><rect x="312.162" y="266.486" width="4.885" height="4.885" fill="#000000"/><rect x="321.892" y="266.486" width="4.885" height="4.885" fill="#000000"/><rect x="326.757" y="266.486" width="4.885" height="4.885" fill="#000000"/><rect x="336.486" y="266.486" width="4.885" height="4.885" fill="#000000"/><rect x="346.216" y="266.486" width="4.885" height="4.885" fill="#000000"/><rect x="351.081" y="266.486" width="4.885" height="4.885" fill="#000000"/><rect x="229.459" y="271.351" width="4.885" height="4.885" fill="#000000"/><rect x="258.649" y="271.351" width="4.885" height="4.885" fill="#000000"/><rect x="273.243" y="271.351" width="4.885" height="4.885" fill="#000000"/><rect x="282.973" y="271.351" width="4.885" height="4.885" fill="#000000"/><rect x="287.838" y="271.351" width="4.885" height="4.885" fill="#000000"/><rect x="292.703" y="271.351" width="4.885" height="4.885" fill="#000000"/><rect x="312.162" y="271.351" width="4.885" height="4.885" fill="#000000"/><rect x="317.027" y="271.351" width="4.885" height="4.885" fill="#000000"/><rect x="321.892" y="271.351" width="4.885" height="4.885" fill="#000000"/><rect x="326.757" y="271.351" width="4.885" height="4.885" fill="#000000"/><rect x="346.216" y="271.351" width="4.885" height="4.885" fill="#000000"/><rect x="360.811" y="271.351" width="4.885" height="4.885" fill="#000000"/><rect x="365.676" y="271.351" width="4.885" height="4.885" fill="#000000"/><rect x="229.459" y="276.216" width="4.885" height="4.885" fill="#000000"/><rect x="239.189" y="276.216" width="4.885" height="4.885" fill="#000000"/><rect x="244.054" y="276.216" width="4.885" height="4.885" fill="#000000"/><rect x="248.919" y="276.216" width="4.885" height="4.885" fill="#000000"/><rect x="258.649" y="276.216" width="4.885" height="4.885" fill="#000000"/><rect x="268.378" y="276.216" width="4.885" height="4.885" fill="#000000"/><rect x="278.108" y="276.216" width="4.885" height="4.885" fill="#000000"/><rect x="282.973" y="276.216" width="4.885" height="4.885" fill="#000000"/><rect x="287.838" y="276.216" width="4.885" height="4.885" fill="#000000"/><rect x="292.703" y="276.216" width="4.885" height="4.885" fill="#000000"/><rect x="307.297" y="276.216" width="4.885" height="4.885" fill="#000000"/><rect x="321.892" y="276.216" width="4.885" height="4.885" fill="#000000"/><rect x="326.757" y="276.216" width="4.885" height="4.885" fill="#000000"/><rect x="331.622" y="276.216" width="4.885" height="4.885" fill="#000000"/><rect x="336.486" y="276.216" width="4.885" height="4.885" fill="#000000"/><rect x="341.351" y="276.216" width="4.885" height="4.885" fill="#000000"/><rect x="346.216" y="276.216" width="4.885" height="4.885" fill="#000000"/><rect x="351.081" y="276.216" width="4.885" height="4.885" fill="#000000"/><rect x="360.811" y="276.216" width="4.885" height="4.885" fill="#000000"/><rect x="229.459" y="281.081" width="4.885" height="4.885" fill="#000000"/><rect x="239.189" y="281.081" width="4.885" height="4.885" fill="#000000"/><rect x="244.054" y="281.081" width="4.885" height="4.885" fill="#000000"/><rect x="248.919" y="281.081" width="4.885" height="4.885" fill="#000000"/><rect x="258.649" y="281.081" width="4.885" height="4.885" fill="#000000"/><rect x="268.378" y="281.081" width="4.885" height="4.885" fill="#000000"/><rect x="273.243" y="281.081" width="4.885" height="4.885" fill="#000000"/><rect x="278.108" y="281.081" width="4.885" height="4.885" fill="#000000"/><rect x="292.703" y="281.081" width="4.885" height="4.885" fill="#000000"/><rect x="297.568" y="281.081" width="4.885" height="4.885" fill="#000000"/><rect x="302.432" y="281.081" width="4.885" height="4.885" fill="#000000"/><rect x="312.162" y="281.081" width="4.885" height="4.885" fill="#000000"/><rect x="317.027" y="281.081" width="4.885" height="4.885" fill="#000000"/><rect x="321.892" y="281.081" width="4.885" height="4.885" fill="#000000"/><rect x="326.757" y="281.081" width="4.885" height="4.885" fill="#000000"/><rect x="341.351" y="281.081" width="4.885" height="4.885" fill="#000000"/><rect x="365.676" y="281.081" width="4.885" height="4.885" fill="#000000"/><rect x="229.459" y="285.946" width="4.885" height="4.885" fill="#000000"/><rect x="239.189" y="285.946" width="4.885" height="4.885" fill="#000000"/><rect x="244.054" y="285.946" width="4.885" height="4.885" fill="#000000"/><rect x="248.919" y="285.946" width="4.885" height="4.885" fill="#000000"/><rect x="258.649" y="285.946" width="4.885" height="4.885" fill="#000000"/><rect x="273.243" y="285.946" width="4.885" height="4.885" fill="#000000"/><rect x="282.973" y="285.946" width="4.885" height="4.885" fill="#000000"/><rect x="287.838" y="285.946" width="4.885" height="4.885" fill="#000000"/><rect x="292.703" y="285.946" width="4.885" height="4.885" fill="#000000"/><rect x="302.432" y="285.946" width="4.885" height="4.885" fill="#000000"/><rect x="317.027" y="285.946" width="4.885" height="4.885" fill="#000000"/><rect x="331.622" y="285.946" width="4.885" height="4.885" fill="#000000"/><rect x="341.351" y="285.946" width="4.885" height="4.885" fill="#000000"/><rect x="346.216" y="285.946" width="4.885" height="4.885" fill="#000000"/><rect x="355.946" y="285.946" width="4.885" height="4.885" fill="#000000"/><rect x="360.811" y="285.946" width="4.885" height="4.885" fill="#000000"/><rect x="365.676" y="285.946" width="4.885" height="4.885" fill="#000000"/><rect x="229.459" y="290.811" width="4.885" height="4.885" fill="#000000"/><rect x="258.649" y="290.811" width="4.885" height="4.885" fill="#000000"/><rect x="268.378" y="290.811" width="4.885" height="4.885" fill="#000000"/><rect x="282.973" y="290.811" width="4.885" height="4.885" fill="#000000"/><rect x="302.432" y="290.811" width="4.885" height="4.885" fill="#000000"/><rect x="307.297" y="290.811" width="4.885" height="4.885" fill="#000000"/><rect x="321.892" y="290.811" width="4.885" height="4.885" fill="#000000"/><rect x="331.622" y="290.811" width="4.885" height="4.885" fill="#000000"/><rect x="341.351" y="290.811" width="4.885" height="4.885" fill="#000000"/><rect x="346.216" y="290.811" width="4.885" height="4.885" fill="#000000"/><rect x="351.081" y="290.811" width="4.885" height="4.885" fill="#000000"/><rect x="355.946" y="290.811" width="4.885" height="4.885" fill="#000000"/><rect x="365.676" y="290.811" width="4.885" height="4.885" fill="#000000"/><rect x="229.459" y="295.676" width="4.885" height="4.885" fill="#000000"/><rect x="234.324" y="295.676" width="4.885" height="4.885" fill="#000000"/><rect x="239.189" y="295.676" width="4.885" height="4.885" fill="#000000"/><rect x="244.054" y="295.676" width="4.885" height="4.885" fill="#000000"/><rect x="248.919" y="295.676" width="4.885" height="4.885" fill="#000000"/><rect x="253.784" y="295.676" width="4.885" height="4.885" fill="#000000"/><rect x="258.649" y="295.676" width="4.885" height="4.885" fill="#000000"/><rect x="268.378" y="295.676" width="4.885" height="4.885" fill="#000000"/><rect x="273.243" y="295.676" width="4.885" height="4.885" fill="#000000"/><rect x="297.568" y="295.676" width="4.885" height="4.885" fill="#000000"/><rect x="302.432" y="295.676" width="4.885" height="4.885" fill="#000000"/><rect x="321.892" y="295.676" width="4.885" height="4.885" fill="#000000"/><rect x="326.757" y="295.676" width="4.885" height="4.885" fill="#000000"/><rect x="331.622" y="295.676" width="4.885" height="4.885" fill="#000000"/><rect x="336.486" y="295.676" width="4.885" height="4.885" fill="#000000"/><rect x="346.216" y="295.676" width="4.885" height="4.885" fill="#000000"/></g></svg>
